<?xml version="1.0" encoding="utf-8"?>
<!-- Generator: Adobe Illustrator 27.3.1, SVG Export Plug-In . SVG Version: 6.00 Build 0)  -->
<svg version="1.1" id="Layer_1" xmlns="http://www.w3.org/2000/svg" xmlns:xlink="http://www.w3.org/1999/xlink" x="0px" y="0px"
	 viewBox="0 0 568 874" style="enable-background:new 0 0 568 874;" xml:space="preserve">
<style type="text/css">
	.st0{fill:#FFFFFF;}
</style>
<g>
	<path class="st0" d="M241.4,5.9c-1.4,6.5-2.5,13-4.3,19.3c-4,13.6,0,26.5,3.9,39c6.2,19.9,18.4,36.6,32.2,52.1
		c9.5,10.6,18.9,21.4,29.3,31.1c15.2,14.3,31.2,27.7,46.9,41.4c5.7,5,11.5,10,17.2,15c25.8,22.9,51.7,45.8,75.1,71.2
		c27.9,30.2,51.4,63.4,66,102.1c5.9,15.5,10.1,31.6,11.1,48.3c0.5,8.9,1.9,17.8,1.8,26.7c-0.1,29.3-7.4,57-19.5,83.6
		C487.9,565,470,591.3,450,616.2c-10.8,13.4-22.2,26.3-33.3,39.4c-3.5,4.2-7,8.3-11.7,12c-9.7-29.2,0.7-55.2,12.1-82.6
		c-4.7-0.2-8.2-0.6-11.6-0.6c-32.9,0-65.8,0-98.7,0c-14.9,0-22.3-5.6-26.3-19.5c-4.5-15.5,6-30.2,22.1-30.4
		c26.3-0.3,52.5-0.1,78.8-0.1c17.3,0,34.6-0.2,51.9,0.1c6,0.1,9.9-1.5,12.4-7.4c9.5-22.1,18-44.4,17.1-68.9c-0.5-12.2-2-24.4-7-36.9
		c-4.1-0.2-8.3-0.5-12.5-0.5c-80.4,0-160.9,0-241.3,0c-16.3,0-26.4-10.8-26.4-26.9c0-12,12-23.4,23.5-23.3
		c73.1,0.6,146.3,0.3,219.4,0.3c3.8,0,7.6-0.3,13.4-0.5c-6.5-8.6-11.4-15.6-16.8-22.1c-16.3-19.3-34.4-36.7-54-52.6
		c-22.9-18.5-45.7-37.2-68.3-56.1c-19-15.9-38.3-31.6-56.3-48.7c-13.6-13-25.7-27.9-34.4-44.8c-10.9-21.2-13.8-43.3-6.8-66.5
		c6.8-22.6,18.4-42.5,32.6-61.1c3.2-4.2,6.4-8.4,9.7-12.6C238.8,5.9,240.1,5.9,241.4,5.9z"/>
	<path class="st0" d="M163.5,204.9c10.8,30.9-2.2,56.8-12.7,84.1c4.4,0,8,0,11.6,0c32.9,0,65.8,0.3,98.7-0.1
		c22.4-0.3,29.7,17.1,25.6,35.3c-2,8.9-11.9,15.1-22.2,15.1c-40.9,0.1-81.8,0-122.6,0c-2.3,0-4.7,0.3-7-0.1
		c-7.2-1.1-11.3,2.4-13.4,8.9c-5,15.4-11.3,30.6-14.5,46.4c-2.3,11.1-0.8,23.1-0.3,34.7c0.3,5.9,2.3,11.7,3.3,17.5
		c0.7,4,2.9,5.7,6.8,5.8c3,0,6,0.1,9,0.1c79.4,0,158.9,0,238.3,0c8.6,0,16.6,1,22.4,8.3c6.8,8.6,7.7,18.4,3.5,28
		c-4,9.1-11.1,14.1-21.9,14.1c-73.1-0.2-146.2-0.1-219.4-0.1c-3.6,0-7.2,0-12.8,0c9.3,11.7,16.9,22.6,25.9,32.1
		c15.6,16.7,32.2,32.5,50.1,46.8c23,18.3,45.2,37.8,68.5,55.8c21.8,16.9,42,35.5,61,55.5c13.9,14.5,25.3,30.8,31.4,50.2
		c7,22.1,4.2,43.9-4.6,64.9c-8.8,20.9-21.2,39.8-36.3,56.8c-0.8,0.9-1.8,1.5-4,3.3c0.2-3.3,0-5.2,0.4-6.9
		c7.2-27.4,1.4-52.5-13.1-76.1c-8-13-16.9-25.3-28-36c-14-13.6-27.2-28.1-41.6-41.2c-17.8-16.3-37.1-31-54.8-47.4
		c-23.9-22.1-47.7-44.4-69.9-68c-21.4-22.7-39.3-48.3-52.8-76.7C59,496.3,52.7,476.2,49.6,455c-6.4-44,0.6-85.7,20.7-125.4
		c14.3-28.3,32.5-53.9,52.3-78.4c10.6-13.1,21.7-25.8,32.7-38.7C157.4,210.1,160,208.1,163.5,204.9z"/>
	<path class="st0" d="M181.4,800.9c-1.3-24.8,16.3-45.7,43.6-48.8c11.9-1.3,33.4,6.5,41.4,21.2c4.5,8.3,7.4,16.9,8.7,26.1
		c3.6,25.2-22.5,54.2-48,52.3c-27.6-2-45.9-21.2-45.7-47.8C181.4,802.9,181.4,801.9,181.4,800.9z"/>
	<path class="st0" d="M301.2,61c0-23.7,12.4-41.7,32.6-47.7c33.2-9.7,60.1,17.9,59.6,43.4c-0.3,15.3-3.4,28.1-13.9,39.9
		c-14.9,16.7-47.1,17.6-63.6,0.8C305.6,87,299.8,75,301.2,61z"/>
</g>
</svg>
