<?xml version="1.0" encoding="UTF-8"?><svg id="Layer_1" xmlns="http://www.w3.org/2000/svg" viewBox="0 0 473.3 862.4"><defs><style>.cls-1{fill:#fff;}</style></defs><path class="cls-1" d="M194.1,0c-1.4,6.5-2.5,13-4.3,19.3-4,13.6,0,26.5,3.9,39,6.2,19.9,18.4,36.6,32.2,52.1,9.5,10.6,18.9,21.4,29.3,31.1,15.2,14.3,31.2,27.7,46.9,41.4,5.7,5,11.5,10,17.2,15,25.8,22.9,51.7,45.8,75.1,71.2,27.9,30.2,51.4,63.4,66,102.1,5.9,15.5,10.1,31.6,11.1,48.3,.5,8.9,1.9,17.8,1.8,26.7-.1,29.3-7.4,57-19.5,83.6-13.2,29.3-31.1,55.6-51.1,80.5-10.8,13.4-22.2,26.3-33.3,39.4-3.5,4.2-7,8.3-11.7,12-9.7-29.2,.7-55.2,12.1-82.6-4.7-.2-8.2-.6-11.6-.6h-98.7c-14.9,0-22.3-5.6-26.3-19.5-4.5-15.5,6-30.2,22.1-30.4,26.3-.3,52.5-.1,78.8-.1,17.3,0,34.6-.2,51.9,.1,6,.1,9.9-1.5,12.4-7.4,9.5-22.1,18-44.4,17.1-68.9-.5-12.2-2-24.4-7-36.9-4.1-.2-8.3-.5-12.5-.5H154.7c-16.3,0-26.4-10.8-26.4-26.9,0-12,12-23.4,23.5-23.3,73.1,.6,146.3,.3,219.4,.3,3.8,0,7.6-.3,13.4-.5-6.5-8.6-11.4-15.6-16.8-22.1-16.3-19.3-34.4-36.7-54-52.6-22.9-18.5-45.7-37.2-68.3-56.1-19-15.9-38.3-31.6-56.3-48.7-13.6-13-25.7-27.9-34.4-44.8-10.9-21.2-13.8-43.3-6.8-66.5,6.8-22.6,18.4-42.5,32.6-61.1C183.8,8.4,187,4.2,190.3,0c1.2,0,2.5,0,3.8,0Z"/><path class="cls-1" d="M116.2,199c10.8,30.9-2.2,56.8-12.7,84.1h11.6c32.9,0,65.8,.3,98.7-.1,22.4-.3,29.7,17.1,25.6,35.3-2,8.9-11.9,15.1-22.2,15.1-40.9,.1-81.8,0-122.6,0-2.3,0-4.7,.3-7-.1-7.2-1.1-11.3,2.4-13.4,8.9-5,15.4-11.3,30.6-14.5,46.4-2.3,11.1-.8,23.1-.3,34.7,.3,5.9,2.3,11.7,3.3,17.5,.7,4,2.9,5.7,6.8,5.8,3,0,6,.1,9,.1h238.3c8.6,0,16.6,1,22.4,8.3,6.8,8.6,7.7,18.4,3.5,28-4,9.1-11.1,14.1-21.9,14.1-73.1-.2-146.2-.1-219.4-.1h-12.8c9.3,11.7,16.9,22.6,25.9,32.1,15.6,16.7,32.2,32.5,50.1,46.8,23,18.3,45.2,37.8,68.5,55.8,21.8,16.9,42,35.5,61,55.5,13.9,14.5,25.3,30.8,31.4,50.2,7,22.1,4.2,43.9-4.6,64.9-8.8,20.9-21.2,39.8-36.3,56.8-.8,.9-1.8,1.5-4,3.3,.2-3.3,0-5.2,.4-6.9,7.2-27.4,1.4-52.5-13.1-76.1-8-13-16.9-25.3-28-36-14-13.6-27.2-28.1-41.6-41.2-17.8-16.3-37.1-31-54.8-47.4-23.9-22.1-47.7-44.4-69.9-68-21.4-22.7-39.3-48.3-52.8-76.7-9.1-19.7-15.4-39.8-18.5-61-6.4-44,.6-85.7,20.7-125.4,14.3-28.3,32.5-53.9,52.3-78.4,10.6-13.1,21.7-25.8,32.7-38.7,2.1-2.4,4.7-4.4,8.2-7.6Z"/><path class="cls-1" d="M134.1,795c-1.3-24.8,16.3-45.7,43.6-48.8,11.9-1.3,33.4,6.5,41.4,21.2,4.5,8.3,7.4,16.9,8.7,26.1,3.6,25.2-22.5,54.2-48,52.3-27.6-2-45.9-21.2-45.7-47.8,0-1,0-2,0-3Z"/><path class="cls-1" d="M253.9,55.1c0-23.7,12.4-41.7,32.6-47.7,33.2-9.7,60.1,17.9,59.6,43.4-.3,15.3-3.4,28.1-13.9,39.9-14.9,16.7-47.1,17.6-63.6,.8-10.3-10.4-16.1-22.4-14.7-36.4Z"/></svg>